<?xml version="1.0" standalone="no"?><!DOCTYPE svg PUBLIC "-//W3C//DTD SVG 1.1//EN" "http://www.w3.org/Graphics/SVG/1.1/DTD/svg11.dtd"><svg t="1775140110362" class="icon" viewBox="0 0 1024 1024" version="1.1" xmlns="http://www.w3.org/2000/svg" p-id="6264" xmlns:xlink="http://www.w3.org/1999/xlink" width="200" height="200"><path d="M36.189929 281.56745h951.620142V996.078055H36.189929z" fill="#BBDCE3" p-id="6265"></path><path d="M876.094289 716.9426h-91.945821v-52.597898h49.611904c13.821973 0 21.053959-12.753975 21.053958-25.35595 0-15.10597-8.851983-26.071949-21.053958-26.071949h-49.611904v-52.239898h91.941821c12.395976 0 21.049959-11.901977 21.049959-28.941944 0-13.591973-6.585987-28.225945-21.049959-28.225944h-127.703751c-13.767973 0-28.583944 6.697987-28.583944 21.411958v227.783555c0 14.709971 14.815971 21.407958 28.583944 21.407958h127.703751c14.463972 0 21.049959-14.631971 21.049959-28.225945 0.006-17.045967-8.651983-28.943943-21.045959-28.943943z" fill="" p-id="6266"></path><path d="M417.069185 533.446958c-35.421931 0-63.213877 39.493923-63.213876 39.493923s-26.213949-39.493923-63.227877-39.493923c-35.99993 0-65.401872 29.693942-67.323868 65.647872-1.083998 20.30996 5.463989 35.76793 14.687971 49.769903 18.433964 27.969945 99.025807 95.307814 115.979774 95.307814 17.303966 0 97.17981-67.091869 115.737774-95.307814 9.243982-14.063973 15.773969-29.455942 14.683971-49.769903-1.919996-35.95393-31.319939-65.647872-67.323869-65.647872" fill="#FF5E8A" p-id="6267"></path><path d="M667.322697 502.433019c-16.079969 0-20.887959 8.421984-22.337957 13.497973l-45.82791 169.13967-46.17591-169.19567c-1.433997-5.02199-6.241988-13.443974-22.323956-13.443973-16.727967 0-40.061922 10.32798-40.061922 27.147947 0 1.609997 0.429999 3.319994 0.843998 4.96799l3.909993 12.751975c-17.279966-25.325951-45.97791-41.799918-78.275848-41.799918-25.953949 0-47.705907 13.189974-62.893877 26.261948-15.007971-13.125974-36.729928-26.261949-63.541876-26.261948-50.635901 0-92.465819 40.455921-95.229814 92.10382-1.653997 31.011939 10.19998 52.879897 19.261963 66.63387 9.773981 14.831971 30.62994 35.315931 50.461901 52.699897H191.199627v-192.383625c0-12.787975-12.627975-21.049959-32.169938-21.049958-19.543962 0-32.171937 8.263984-32.171937 21.049958v228.143555c0 14.709971 14.815971 21.407958 28.583944 21.407958h113.351779c13.971973 0 20.33596-14.817971 20.33596-28.583944a43.679915 43.679915 0 0 0-1.021998-9.371982c45.151912 35.95793 58.995885 35.96193 65.869872 35.96193 7.409986 0 22.829955 0 75.247853-43.517915 22.885955-19.001963 51.677899-45.89391 63.839875-64.385874 8.505983-12.941975 19.471962-33.047935 19.389962-61.095881l46.12791 150.485706c4.121992 13.111974 20.051961 21.587958 40.589921 21.587958 20.53396 0 36.463929-8.471983 40.59792-21.619958l66.78187-219.033572c0.409999-1.651997 0.837998-3.357993 0.837998-4.94799-0.004-16.821967-23.337954-27.149947-40.067921-27.149947z m-220.959569 131.071744c-13.801973 20.989959-70.617862 69.165865-92.30782 81.093841-21.659958-12.059976-79.397845-60.889881-92.727818-81.111841-7.801985-11.839977-10.733979-21.371958-10.117981-32.897936 1.155998-21.611958 18.839963-39.193923 39.417923-39.193923 17.601966 0 35.239931 20.093961 39.945922 27.005947a27.943945 27.943945 0 0 0 22.903956 12.487975c9.201982 0.064 17.923965-4.313992 23.233954-11.859976 6.091988-8.657983 24.707952-27.633946 40.357921-27.633946 20.58196 0 38.267925 17.581966 39.423923 39.197923 0.617999 11.493978-2.319995 21.029959-10.12998 32.911936zM640.740749 416.039187c-1.815996 0-3.659993-0.196-5.47799-0.557998-1.759997-0.335999-3.519993-0.893998-5.22599-1.591997a28.287945 28.287945 0 0 1-4.80599-2.569995c-1.535997-1.005998-2.961994-2.179996-4.247992-3.465994s-2.459995-2.709995-3.493993-4.247991a28.247945 28.247945 0 0 1-2.569995-4.809991 29.427943 29.427943 0 0 1-1.591997-5.22199 27.949945 27.949945 0 0 1-0.529999-5.477989 27.585946 27.585946 0 0 1 2.121996-10.675979c0.697999-1.703997 1.563997-3.325994 2.569995-4.833991 1.033998-1.535997 2.207996-2.961994 3.493993-4.247991s2.709995-2.459995 4.247992-3.465994a28.287945 28.287945 0 0 1 4.80599-2.569995 29.519942 29.519942 0 0 1 5.22599-1.591997c9.081982-1.843996 18.749963 1.145998 25.233951 7.627986a26.699948 26.699948 0 0 1 3.465993 4.247991c1.005998 1.509997 1.871996 3.129994 2.569995 4.833991 0.697999 1.675997 1.229998 3.433993 1.591997 5.22599 0.363999 1.787997 0.557999 3.631993 0.557999 5.449989a28.159945 28.159945 0 0 1-4.719991 15.50997 26.789948 26.789948 0 0 1-3.465993 4.247991 28.161945 28.161945 0 0 1-19.755961 8.185984zM383.259251 917.446208c-1.815996 0-3.659993-0.17-5.449989-0.529999a28.359945 28.359945 0 0 1-10.05998-4.159992 26.789948 26.789948 0 0 1-4.247992-3.465993 27.927945 27.927945 0 0 1-3.465993-4.249992 28.257945 28.257945 0 0 1-4.719991-15.535969c0-7.349986 2.989994-14.531972 8.187984-19.755962a28.323945 28.323945 0 0 1 4.247992-3.465993 28.311945 28.311945 0 0 1 10.05998-4.159992 27.527946 27.527946 0 0 1 10.925979 0c1.759997 0.363999 3.519993 0.891998 5.22599 1.589997a28.425944 28.425944 0 0 1 9.053982 6.035988 29.899942 29.899942 0 0 1 3.493993 4.249992 28.257945 28.257945 0 0 1 4.161992 10.05798c0.335999 1.815996 0.529999 3.631993 0.529999 5.44999 0 1.843996-0.196 3.687993-0.529999 5.477989-0.363999 1.787997-0.893998 3.547993-1.591997 5.22599s-1.563997 3.297994-2.569995 4.83199a30.011941 30.011941 0 0 1-3.493993 4.249992 26.699948 26.699948 0 0 1-4.247992 3.465993c-1.507997 1.003998-3.129994 1.871996-4.80599 2.569995a29.259943 29.259943 0 0 1-5.25399 1.589997c-1.789997 0.359999-3.631993 0.527999-5.44999 0.527999z" fill="" p-id="6268"></path><path d="M511.999 104.977795m-77.03785 0a77.03785 77.03785 0 1 0 154.0757 0 77.03785 77.03785 0 1 0-154.0757 0Z" fill="#FF5E8A" p-id="6269"></path><path d="M987.812071 253.615505H710.374613l-102.323801-106.337793a104.335796 104.335796 0 0 0 8.931983-42.299917C616.980795 47.093908 569.888887 0 512.001 0s-104.977795 47.093908-104.977795 104.977795a104.335796 104.335796 0 0 0 8.931983 42.299917l-102.323801 106.337793H36.189929c-15.43397 0-27.943945 12.513976-27.943945 27.943945v714.496605c0 15.42997 12.509976 27.943945 27.943945 27.943945h951.622142c15.43397 0 27.943945-12.513976 27.943945-27.943945V281.55945c0-15.43397-12.509976-27.943945-27.943945-27.943945zM512.001 55.887891c27.069947 0 49.089904 22.023957 49.089904 49.089904s-22.023957 49.089904-49.089904 49.089904c-27.067947 0-49.089904-22.023957-49.089904-49.089904s22.019957-49.089904 49.089904-49.089904zM451.639118 190.789627c17.087967 12.055976 37.903926 19.167963 60.361882 19.167963s43.271915-7.111986 60.361882-19.167963l60.451882 62.821878H391.189236l60.449882-62.821878zM64.133875 968.110109V416.039187h495.475032c15.43397 0 27.943945-12.513976 27.943945-27.943945s-12.509976-27.943945-27.943945-27.943945H64.133875v-50.649901h895.73225v552.068921H464.395093c-15.43397 0-27.943945 12.513976-27.943945 27.943946s12.509976 27.943945 27.943945 27.943945h495.475032v50.649901H64.133875z" fill="" p-id="6270"></path></svg>