<?xml version="1.0" standalone="no"?><!DOCTYPE svg PUBLIC "-//W3C//DTD SVG 1.1//EN" "http://www.w3.org/Graphics/SVG/1.1/DTD/svg11.dtd"><svg t="1775140129202" class="icon" viewBox="0 0 1024 1024" version="1.1" xmlns="http://www.w3.org/2000/svg" p-id="6436" xmlns:xlink="http://www.w3.org/1999/xlink" width="200" height="200"><path d="M748.52 643.05c-11.72-11.72-30.71-11.72-42.43 0l-42.43 42.43c-11.72 11.72-11.72 30.71 0 42.43 9.61 9.61 24.11 11.33 35.48 5.18-2 28.31-11.1 51.6-27.23 69.48-21.92 24.3-51.9 32.48-62.2 32.48-16.57 0-30 13.43-30 30s13.43 30 30 30c28.7 0 74.35-16.36 106.76-52.29 18.81-20.86 39.45-55.37 42.65-108 10.69 4.04 23.23 1.76 31.83-6.84 11.72-11.72 11.72-30.71 0-42.43l-42.43-42.44z m-349.95 50.58c42.24-26.31 70.42-73.17 70.42-126.5 0-82.12-66.81-148.93-148.93-148.93s-148.93 66.81-148.93 148.93c0 53.33 28.18 100.19 70.42 126.5-64.53 29.79-109.42 95.11-109.42 170.72 0 16.57 13.43 30 30 30s30-13.43 30-30c0-70.54 57.39-127.92 127.92-127.92s127.92 57.39 127.92 127.92c0 16.57 13.43 30 30 30s30-13.43 30-30c0.02-75.61-44.88-140.92-109.4-170.72z m-78.51-215.42c49.03 0 88.93 39.89 88.93 88.93s-39.89 88.93-88.93 88.93-88.93-39.89-88.93-88.93 39.9-88.93 88.93-88.93z m26.51 296.34l-0.65-0.01a37.005 37.005 0 0 0-27.68 13.15 36.637 36.637 0 0 0-26.93-14.48c-20.82-0.41-38.08 16.05-38.63 36.87-0.62 24.36 14.23 38.08 29.88 52.46a159.561 159.561 0 0 1 27.14 29.78 7.832 7.832 0 0 0 6.38 3.47c1.18 0 2.35-0.25 3.42-0.74a8.077 8.077 0 0 0 3.03-2.56 151.417 151.417 0 0 1 28.66-29.17c16.19-13.7 31.55-26.61 32.32-50.16 0.32-20.82-16.14-38.02-36.94-38.61z m438.69-368.93c42.24-26.31 70.42-73.17 70.42-126.5 0-82.12-66.81-148.93-148.93-148.93S557.83 197 557.83 279.12c0 53.33 28.18 100.19 70.42 126.5-64.53 29.79-109.42 95.11-109.42 170.72 0 16.57 13.43 30 30 30s30-13.43 30-30c0-70.54 57.39-127.92 127.92-127.92s127.92 57.39 127.92 127.92c0 16.57 13.43 30 30 30s30-13.43 30-30c0.01-75.61-44.88-140.93-109.41-170.72z m-78.5-215.43c49.03 0 88.93 39.89 88.93 88.93s-39.89 88.93-88.93 88.93-88.93-39.89-88.93-88.93 39.89-88.93 88.93-88.93z m-37.5 384.32a159.561 159.561 0 0 1 27.14 29.78 7.832 7.832 0 0 0 6.38 3.47c1.18 0 2.35-0.25 3.42-0.74a8.077 8.077 0 0 0 3.03-2.56 151.417 151.417 0 0 1 28.66-29.17c16.19-13.7 31.55-26.61 32.32-50.16 0.32-20.8-16.14-38-36.94-38.6l-0.65-0.01a37.005 37.005 0 0 0-27.68 13.15 36.637 36.637 0 0 0-26.93-14.48c-20.82-0.41-38.08 16.05-38.63 36.87-0.62 24.35 14.23 38.07 29.88 52.45z" p-id="6437" fill="#17abe3"></path></svg>