<?xml version="1.0" standalone="no"?><!DOCTYPE svg PUBLIC "-//W3C//DTD SVG 1.1//EN" "http://www.w3.org/Graphics/SVG/1.1/DTD/svg11.dtd"><svg t="1775140036245" class="icon" viewBox="0 0 1373 1024" version="1.1" xmlns="http://www.w3.org/2000/svg" p-id="5393" xmlns:xlink="http://www.w3.org/1999/xlink" width="268.1640625" height="200"><path d="M678.10606022 882.78855466c-65.35318661 0-126.80746113-25.45638673-173.03741389-71.70696821L252.87713579 558.91070536C206.66781251 512.66012387 181.21142577 451.22647811 181.21142577 385.87329147s25.45638673-126.78683168 71.68633948-172.99615568C299.08645979 166.66781251 360.52010486 141.21142578 425.89392094 141.21142578c65.35318661 0 126.78683168 25.45638673 173.01678515 71.66571002L851.10221591 465.08927509c46.22995274 46.20932402 71.70696821 107.64296907 71.70696821 173.01678514 0 65.33255716-25.45638673 126.78683168-71.70696821 172.97552622C804.8928919 857.33216865 743.47987557 882.78855466 678.10606022 882.78855466zM425.89392094 236.04368509c-40.0205752 0-77.64816713 15.59564697-105.93074855 43.89885785C291.63933207 308.24575382 276.06431455 345.85271627 276.06431455 385.87329147s15.57501751 77.64816713 43.89885784 105.951378l252.21213929 252.19150984c28.30321087 28.3238396 65.9308028 43.91948658 105.951378 43.91948658 40.0205752 0 77.62753839-15.59564697 105.93074854-43.87822838 28.30321087-28.3238396 43.89885785-65.9308028 43.89885785-105.951378 0-40.0205752-15.59564697-77.66879659-43.87822839-105.95137801L531.84529894 279.94254293C503.54208807 251.63933207 465.91449613 236.04368509 425.89392094 236.04368509z" fill="#1296db" p-id="5394"></path><path d="M678.10606022 882.78855466c-65.35318661 0-126.80746113-25.45638673-173.03741389-71.70696821-46.18869455-46.18869455-71.64508128-107.64296907-71.64508126-172.97552622 0-65.37381535 25.45638673-126.80746113 71.64508126-173.01678514L757.32204384 212.8771358C803.53136712 166.66781251 864.98564235 141.21142578 930.31819951 141.21142578c65.37381535 0 126.78683168 25.45638673 173.03741387 71.66571002 95.38924676 95.40987621 95.38924676 250.60306462 0 345.99231137L851.10221591 811.10221591C804.8928919 857.33216865 743.47987557 882.78855466 678.10606022 882.78855466zM930.31819951 236.04368509c-39.97931701 0-77.64816713 15.59564697-105.93074853 43.89885785L572.13405277 532.15468223c-28.30321087 28.30321087-43.87822839 65.9308028-43.8782284 105.951378 0 40.0205752 15.57501751 77.62753839 43.89885785 105.9101198 28.30321087 28.3238396 65.9308028 43.91948658 105.951378 43.91948658 40.0205752 0 77.62753839-15.59564697 105.93074854-43.87822838L1036.29020624 491.84529895c58.3805292-58.42178812 58.3805292-153.48096788-0.02062945-211.90275601C1007.96636665 251.63933207 970.33877399 236.04368509 930.31819951 236.04368509z" fill="#1296db" p-id="5395"></path></svg>